<?xml version="1.0" encoding="iso-8859-1"?>
<!-- Generator: Adobe Illustrator 16.0.0, SVG Export Plug-In . SVG Version: 6.00 Build 0)  -->
<!DOCTYPE svg PUBLIC "-//W3C//DTD SVG 1.1//EN" "http://www.w3.org/Graphics/SVG/1.1/DTD/svg11.dtd">
<svg version="1.1" color="#f0f0f0" id="Capa_1" xmlns="http://www.w3.org/2000/svg" xmlns:xlink="http://www.w3.org/1999/xlink" x="0px" y="0px"
	 width="477.872px" height="477.872px" viewBox="0 0 477.872 477.872" style="enable-background:new 0 0 477.872 477.872;"
	 xml:space="preserve">
<g>
	<g id="_x37__15_">
		<g>
			<path d="M391.648,170.476c-74.877-53.203-136.949,17.734-151.727,17.734c-0.278,0-1.693,0-1.971,0
				c-14.777,0-76.849-70.937-151.727-17.734c-74.879,53.203-18.72,307.396,124.14,307.396c11.424,0,20.799,0,30.297,0
				c8.358,0,16.81,0,26.849,0C410.369,477.873,466.527,223.678,391.648,170.476z" color="#efefef" fill="#ff5155" />
			<path d="M242.561,166.518c21.043-8.14,137.924-112.897,62.01-159.132c-69.381-42.257-88.918,108.816-77.841,149.772
				C227.269,161.711,235.519,167.323,242.561,166.518z"/>
		</g>
	</g>
</g>
<g>
</g>
<g>
</g>
<g>
</g>
<g>
</g>
<g>
</g>
<g>
</g>
<g>
</g>
<g>
</g>
<g>
</g>
<g>
</g>
<g>
</g>
<g>
</g>
<g>
</g>
<g>
</g>
<g>
</g>
</svg>
