<svg xmlns="http://www.w3.org/2000/svg" width="91.117" height="91.117" viewBox="0 0 91.117 91.117">
    <defs>
        <filter id="3l4dfir6ia" width="91.117" height="91.117" x="0" y="0" filterUnits="userSpaceOnUse">
            <feOffset/>
            <feGaussianBlur result="blur" stdDeviation="8"/>
            <feFlood flood-opacity=".161"/>
            <feComposite in2="blur" operator="in"/>
            <feComposite in="SourceGraphic"/>
        </filter>
    </defs>
    <g filter="url(#3l4dfir6ia)">
        <path fill="#ff5155" d="M45.294 36.567l-13.08-13.08 13.08-13.08a1.351 1.351 0 0 0 0-1.905l-6.179-6.18a1.351 1.351 0 0 0-1.905 0L24.129 15.4 11.049 2.322a1.351 1.351 0 0 0-1.905 0L2.964 8.5a1.351 1.351 0 0 0 0 1.905l13.08 13.08-13.08 13.082a1.35 1.35 0 0 0 0 1.905l6.179 6.179a1.351 1.351 0 0 0 1.905 0l13.08-13.08 13.08 13.08a1.35 1.35 0 0 0 1.9 0l6.179-6.179a1.35 1.35 0 0 0 0-1.905z" transform="translate(21.43 22.07)"/>
    </g>
</svg>
